<?xml version="1.0" standalone="no"?>
<!DOCTYPE svg PUBLIC "-//W3C//DTD SVG 20010904//EN"
 "http://www.w3.org/TR/2001/REC-SVG-20010904/DTD/svg10.dtd">
<svg version="1.0" xmlns="http://www.w3.org/2000/svg"
 width="300.000000pt" height="100.000000pt" viewBox="0 0 300.000000 100.000000"
 preserveAspectRatio="xMidYMid meet">
<metadata>
Created by potrace 1.16, written by Peter Selinger 2001-2019
</metadata>
<g transform="translate(0.000000,100.000000) scale(0.100000,-0.100000)"
fill="#000000" stroke="none">
<path d="M1025 830 l-75 -150 0 -88 c0 -80 2 -91 23 -110 32 -30 81 -29 112 3
21 20 25 34 25 85 0 51 12 116 69 373 l9 37 -44 0 -44 0 -75 -150z"/>
<path d="M1300 963 c0 -10 -9 -94 -20 -188 -27 -230 -26 -260 5 -290 34 -35
86 -34 114 1 20 25 21 39 21 260 l0 234 -60 0 c-50 0 -60 -3 -60 -17z"/>
<path d="M1570 745 l0 -236 25 -24 c32 -33 83 -34 113 -2 21 23 22 31 22 260
l0 237 -80 0 -80 0 0 -235z"/>
<path d="M1882 738 c5 -236 6 -242 28 -260 31 -26 82 -23 108 5 18 19 22 35
22 88 0 56 -17 234 -35 367 l-6 42 -61 0 -61 0 5 -242z"/>
<path d="M2120 967 c0 -8 18 -94 40 -192 22 -98 40 -202 40 -231 0 -59 21 -84
71 -84 66 0 89 37 89 137 0 65 -4 76 -78 223 l-77 155 -42 3 c-32 2 -43 -1
-43 -11z"/>
</g>
</svg>
